<svg width="69" height="69" viewBox="0 0 69 69" fill="none" xmlns="http://www.w3.org/2000/svg">
<g filter="url(#filter0_d_190_8)">
<rect x="5" y="1" width="59" height="59" rx="7" stroke="white" stroke-width="2"/>
<path d="M27.2522 43.9594C26.3847 44.5303 25.2559 43.7832 25.4425 42.7616L26.5209 36.8559C26.5496 36.699 26.6097 36.5495 26.6978 36.4165L35.6728 22.8568C36.0325 22.3133 36.7647 22.1643 37.3082 22.524L41.2446 25.1294C41.7881 25.4892 41.937 26.2214 41.5773 26.7649L32.6022 40.3246C32.5142 40.4576 32.4001 40.5714 32.2669 40.659L27.2522 43.9594Z" fill="#FCA311"/>
<path d="M44.1827 22.8285C43.823 23.372 43.0908 23.521 42.5473 23.1613L38.6109 20.5559C38.0674 20.1961 37.9185 19.4639 38.2782 18.9204L40.8836 14.9841C41.2433 14.4406 41.9755 14.2916 42.519 14.6513L46.4554 17.2568C46.9989 17.6165 47.1479 18.3487 46.7881 18.8922L44.1827 22.8285Z" fill="#FCA311"/>
</g>
<defs>
<filter id="filter0_d_190_8" x="0" y="0" width="69" height="69" filterUnits="userSpaceOnUse" color-interpolation-filters="sRGB">
<feFlood flood-opacity="0" result="BackgroundImageFix"/>
<feColorMatrix in="SourceAlpha" type="matrix" values="0 0 0 0 0 0 0 0 0 0 0 0 0 0 0 0 0 0 127 0" result="hardAlpha"/>
<feOffset dy="4"/>
<feGaussianBlur stdDeviation="2"/>
<feComposite in2="hardAlpha" operator="out"/>
<feColorMatrix type="matrix" values="0 0 0 0 0 0 0 0 0 0 0 0 0 0 0 0 0 0 0.25 0"/>
<feBlend mode="normal" in2="BackgroundImageFix" result="effect1_dropShadow_190_8"/>
<feBlend mode="normal" in="SourceGraphic" in2="effect1_dropShadow_190_8" result="shape"/>
</filter>
</defs>
</svg>
