<svg width="53" height="68" viewBox="0 0 53 68" fill="none" xmlns="http://www.w3.org/2000/svg">
<path d="M1.91658 14.6388H50.5554V60.9999C50.5554 64.8659 47.4214 67.9999 43.5554 67.9999H8.91659C5.0506 67.9999 1.91658 64.8659 1.91658 60.9999V14.6388Z" fill="#C6C6C6"/>
<path d="M9.43329 4.48611C9.76861 4.48611 10.0986 4.4018 10.3928 4.24093L17.7008 0.245175C17.995 0.0843095 18.3249 0 18.6603 0H34.0479C34.3832 0 34.7131 0.0843094 35.0073 0.245175L42.3154 4.24093C42.6096 4.4018 42.9395 4.48611 43.2748 4.48611H49.2241C50.0888 4.48611 50.8555 5.04178 51.1247 5.86349L52.0574 8.7107C52.481 10.0038 51.5175 11.3333 50.1568 11.3333H2.07531C0.65025 11.3333 -0.317603 9.88539 0.227269 8.56862L1.40543 5.7214C1.71482 4.9737 2.44428 4.48611 3.25346 4.48611H9.43329Z" fill="#C6C6C6"/>
</svg>
